<?xml version="1.0" encoding="UTF-8"?>
<svg id="Layer_1" xmlns="http://www.w3.org/2000/svg" version="1.1" viewBox="0 0 160 44">
  <!-- Generator: Adobe Illustrator 30.3.0, SVG Export Plug-In . SVG Version: 2.1.3 Build 182)  -->
  <path d="M40.53,28.44l-.74,7.19-8.01.08c-1.22-6.01-1.26-12.02-4.57-17.29-1.26,7.17-.28,13.37-.22,20.19l-10.49.02.05-14.06-.1-18.72,14.18-.02c1,5.52,2.21,10.61,4.25,15.7,2.71-6.4,6.18-11.04,11.04-15.1l10.85-.07v32.12s-9.61.43-9.61.43l.02-22.85c-4.17,2.93-6.13,7.45-6.64,12.39Z"/>
  <path d="M69.2,24.46c-.21-2.37,3.84-1.1,7.35-1.74l.04-9.44c-7.9,3.4-8.62,12.25-9.28,20.55l-7.94-.04c.08-8.11,2.68-14.66,7.93-20.95-2.72-.4-4.3-.32-7.25-.16-.11-1.82-.08-4,.07-6.29h24.51s-.02,27.4-.02,27.4l-7.92.11-.12-5.25-7-.03-.37-4.15Z"/>
  <path d="M100.36,15.55l12.01.04-.02,23.04c-2.72-.11-4.16-.1-6.83.04l-.93-3.79c-4.77-.41-9.08-1.35-12.74-4.24-5.59-4.42-7.4-12.19-3.36-18.25,3.84-5.77,13.1-6.99,20.3-5.82v5.58c-5.08-1.5-9.61-.56-12.26,3.4-1.82,2.72-2.24,6.14-.6,8.75s4.67,4.05,8.39,3.41l.04-7.17-3.95-.39-.04-4.59Z"/>
  <path d="M143.77,20.75c0,8.15-6.61,14.75-14.75,14.75s-14.75-6.61-14.75-14.75,6.61-14.75,14.75-14.75,14.75,6.61,14.75,14.75ZM134.25,15.23c-.78-1.7-2.76-2.75-4.54-2.9-1.67-.14-3.87.49-4.91,1.95-2.61,3.67-2.67,8.51-.5,12.34,1.2,2.12,3.62,3.09,5.75,2.83,4.65-.56,7.43-7.2,4.2-14.22Z"/>
</svg>