<svg xmlns="http://www.w3.org/2000/svg" xmlns:xlink="http://www.w3.org/1999/xlink" width="500" zoomAndPan="magnify" viewBox="0 0 375 149.999998" height="200" preserveAspectRatio="xMidYMid meet" version="1.0"><defs><g/><clipPath id="eeb5ddfdbf"><rect x="0" width="346" y="0" height="125"/></clipPath></defs><g transform="matrix(1, 0, 0, 1, 12, 20)"><g clip-path="url(#eeb5ddfdbf)"><g fill="#726b64" fill-opacity="1"><g transform="translate(1.125507, 96.246906)"><g><path d="M 5.96875 0 L 5.96875 -1.546875 C 7.789062 -2.109375 9.039062 -3.300781 9.71875 -5.125 C 10.394531 -6.957031 10.734375 -10.300781 10.734375 -15.15625 L 10.734375 -63.59375 C 10.734375 -68.125 10.453125 -71.640625 9.890625 -74.140625 C 9.335938 -76.648438 8.523438 -78.460938 7.453125 -79.578125 C 6.378906 -80.691406 5.046875 -81.488281 3.453125 -81.96875 L 3.453125 -83.515625 L 17.890625 -83.515625 L 49.03125 -32.09375 L 79.578125 -83.515625 L 93.0625 -83.515625 L 93.0625 -81.96875 C 91.46875 -81.488281 90.132812 -80.691406 89.0625 -79.578125 C 87.988281 -78.460938 87.171875 -76.648438 86.609375 -74.140625 C 86.054688 -71.640625 85.78125 -68.125 85.78125 -63.59375 L 85.78125 -15.15625 C 85.78125 -10.300781 86.117188 -6.957031 86.796875 -5.125 C 87.472656 -3.300781 88.726562 -2.109375 90.5625 -1.546875 L 90.5625 0 L 71.234375 0 L 71.234375 -1.546875 C 73.054688 -2.109375 74.304688 -3.300781 74.984375 -5.125 C 75.660156 -6.957031 76 -10.300781 76 -15.15625 L 76 -73.859375 L 45.703125 -22.671875 L 43.4375 -22.671875 L 12.890625 -72.90625 L 12.890625 -19.921875 C 12.890625 -15.390625 13.207031 -11.890625 13.84375 -9.421875 C 14.476562 -6.960938 15.390625 -5.15625 16.578125 -4 C 17.773438 -2.84375 19.25 -2.023438 21 -1.546875 L 21 0 Z M 5.96875 0 "/></g></g></g><g fill="#726b64" fill-opacity="1"><g transform="translate(89.893893, 96.246906)"><g><path d="M -2.03125 0 L -2.03125 -1.546875 C -0.351562 -2.109375 1.273438 -3.203125 2.859375 -4.828125 C 4.453125 -6.460938 6.164062 -9.546875 8 -14.078125 L 31.5 -72.296875 C 32.21875 -74.210938 32.140625 -76.082031 31.265625 -77.90625 L 30.1875 -80.421875 L 39.140625 -84.46875 L 68.484375 -13.953125 C 70.316406 -9.503906 71.96875 -6.460938 73.4375 -4.828125 C 74.90625 -3.203125 76.273438 -2.109375 77.546875 -1.546875 L 77.546875 0 L 59.0625 0 L 59.0625 -1.546875 C 60.882812 -2.109375 61.632812 -3.203125 61.3125 -4.828125 C 61 -6.460938 59.890625 -9.503906 57.984375 -13.953125 L 50.703125 -31.5 L 17.0625 -31.5 L 10.015625 -14.078125 C 6.992188 -6.523438 7.472656 -2.347656 11.453125 -1.546875 L 11.453125 0 Z M 17.78125 -33.28125 L 49.984375 -33.28125 L 33.640625 -72.546875 Z M 17.78125 -33.28125 "/></g></g></g><g fill="#726b64" fill-opacity="1"><g transform="translate(155.992651, 96.246906)"><g><path d="M 22.546875 0 L 22.546875 -1.546875 C 24.378906 -2.109375 25.632812 -3.300781 26.3125 -5.125 C 26.988281 -6.957031 27.285156 -10.300781 27.203125 -15.15625 L 27.203125 -37.578125 L 9.1875 -70.28125 C 6.882812 -74.488281 4.859375 -77.347656 3.109375 -78.859375 C 1.359375 -80.367188 -0.15625 -81.40625 -1.4375 -81.96875 L -1.4375 -83.515625 L 17.421875 -83.515625 L 17.421875 -81.96875 C 15.671875 -81.40625 15.070312 -80.367188 15.625 -78.859375 C 16.1875 -77.347656 17.660156 -74.488281 20.046875 -70.28125 L 36.625 -40.6875 L 53.328125 -70.28125 C 55.398438 -73.9375 56.4375 -76.695312 56.4375 -78.5625 C 56.4375 -80.4375 55.28125 -81.570312 52.96875 -81.96875 L 52.96875 -83.515625 L 67.171875 -83.515625 L 67.171875 -81.96875 C 65.578125 -81.40625 63.828125 -80.367188 61.921875 -78.859375 C 60.015625 -77.347656 57.867188 -74.488281 55.484375 -70.28125 L 37.21875 -37.828125 L 37.21875 -15.15625 C 37.21875 -10.300781 37.554688 -6.957031 38.234375 -5.125 C 38.910156 -3.300781 40.164062 -2.109375 42 -1.546875 L 42 0 Z M 22.546875 0 "/></g></g></g><g fill="#726b64" fill-opacity="1"><g transform="translate(211.233851, 96.246906)"><g><path d="M 6.078125 0 L 6.078125 -1.546875 C 7.910156 -2.109375 9.164062 -3.300781 9.84375 -5.125 C 10.519531 -6.957031 10.859375 -10.300781 10.859375 -15.15625 L 10.859375 -68.359375 C 10.859375 -73.296875 10.519531 -76.65625 9.84375 -78.4375 C 9.164062 -80.226562 7.910156 -81.40625 6.078125 -81.96875 L 6.078125 -83.515625 L 25.40625 -83.515625 L 25.40625 -81.96875 C 23.582031 -81.40625 22.332031 -80.226562 21.65625 -78.4375 C 20.976562 -76.65625 20.640625 -73.296875 20.640625 -68.359375 L 20.640625 -38.0625 L 51.90625 -70.03125 C 55.644531 -73.925781 57.8125 -76.890625 58.40625 -78.921875 C 59 -80.953125 58.144531 -82.125 55.84375 -82.4375 L 55.84375 -83.515625 L 72.421875 -83.515625 L 72.421875 -81.96875 C 70.515625 -81.40625 68.285156 -80.585938 65.734375 -79.515625 C 63.191406 -78.441406 60.210938 -76.15625 56.796875 -72.65625 L 31.375 -46.65625 L 34.125 -46.765625 C 38.582031 -47.085938 42.222656 -46.867188 45.046875 -46.109375 C 47.867188 -45.359375 50.210938 -43.988281 52.078125 -42 C 53.953125 -40.007812 55.703125 -37.300781 57.328125 -33.875 C 58.960938 -30.457031 60.773438 -26.207031 62.765625 -21.125 C 64.828125 -16.03125 66.535156 -12.070312 67.890625 -9.25 C 69.242188 -6.425781 70.492188 -4.457031 71.640625 -3.34375 C 72.796875 -2.226562 74.007812 -1.671875 75.28125 -1.671875 C 75.675781 -1.671875 76.035156 -1.671875 76.359375 -1.671875 C 76.679688 -1.671875 77 -1.710938 77.3125 -1.796875 L 77.3125 -0.234375 C 76.28125 0.078125 75.144531 0.289062 73.90625 0.40625 C 72.675781 0.53125 71.425781 0.59375 70.15625 0.59375 C 67.289062 0.59375 64.984375 -0.0195312 63.234375 -1.25 C 61.484375 -2.488281 59.910156 -4.519531 58.515625 -7.34375 C 57.128906 -10.164062 55.484375 -13.882812 53.578125 -18.5 C 51.585938 -23.34375 49.894531 -27.453125 48.5 -30.828125 C 47.101562 -34.210938 45.691406 -36.941406 44.265625 -39.015625 C 42.835938 -41.085938 41.164062 -42.578125 39.25 -43.484375 C 37.34375 -44.398438 34.878906 -44.820312 31.859375 -44.75 L 29.46875 -44.75 L 20.640625 -35.671875 L 20.640625 -15.15625 C 20.640625 -10.300781 20.976562 -6.957031 21.65625 -5.125 C 22.332031 -3.300781 23.582031 -2.109375 25.40625 -1.546875 L 25.40625 0 Z M 6.078125 0 "/></g></g></g><g fill="#726b64" fill-opacity="1"><g transform="translate(277.213292, 96.246906)"><g><path d="M 6.078125 0 L 6.078125 -1.546875 C 7.910156 -2.109375 9.164062 -3.300781 9.84375 -5.125 C 10.519531 -6.957031 10.859375 -10.300781 10.859375 -15.15625 L 10.859375 -68.359375 C 10.859375 -73.296875 10.519531 -76.65625 9.84375 -78.4375 C 9.164062 -80.226562 7.910156 -81.40625 6.078125 -81.96875 L 6.078125 -83.515625 L 61.5625 -83.515625 L 62.875 -68.015625 L 61.5625 -67.65625 C 59.5 -72.90625 56.613281 -76.5625 52.90625 -78.625 C 49.207031 -80.695312 44.300781 -81.734375 38.1875 -81.734375 L 20.640625 -81.734375 L 20.640625 -45.578125 L 35.90625 -45.578125 C 40.445312 -45.578125 43.96875 -45.875 46.46875 -46.46875 C 48.976562 -47.0625 50.804688 -47.972656 51.953125 -49.203125 C 53.109375 -50.441406 53.925781 -51.9375 54.40625 -53.6875 L 55.84375 -53.6875 L 55.84375 -35.671875 L 54.40625 -35.671875 C 53.925781 -37.503906 53.109375 -39.015625 51.953125 -40.203125 C 50.804688 -41.398438 48.976562 -42.296875 46.46875 -42.890625 C 43.96875 -43.484375 40.445312 -43.78125 35.90625 -43.78125 L 20.640625 -43.78125 L 20.640625 -7.15625 C 20.640625 -3.582031 22.429688 -1.796875 26.015625 -1.796875 L 41.515625 -1.796875 C 47.242188 -1.796875 51.976562 -2.785156 55.71875 -4.765625 C 59.457031 -6.753906 62.398438 -10.535156 64.546875 -16.109375 L 65.859375 -15.875 L 64.90625 0 Z M 6.078125 0 "/></g></g></g></g></g></svg>