<?xml version="1.0" encoding="UTF-8"?>
<svg id="Layer_1" xmlns="http://www.w3.org/2000/svg" version="1.1" viewBox="0 0 86.4 86.4">
  <!-- Generator: Adobe Illustrator 30.3.0, SVG Export Plug-In . SVG Version: 2.1.3 Build 182)  -->
  <defs>
    <style>
      .st0 {
        fill: #e25e35;
      }

      .st1 {
        fill: #5c5858;
      }

      .st2 {
        fill: #e26236;
      }

      .st3 {
        fill: #393939;
      }

      .st4 {
        fill: #612f2c;
      }

      .st5 {
        fill: #e99572;
      }

      .st6 {
        fill: #ac2527;
      }

      .st7 {
        fill: #6a1d16;
      }

      .st8 {
        fill: #1f1211;
      }

      .st9 {
        fill: #a52427;
      }

      .st10 {
        fill: #d2d1d1;
      }

      .st11 {
        fill: #3c3131;
      }

      .st12 {
        fill: #eca588;
      }

      .st13 {
        fill: #58292b;
      }

      .st14 {
        fill: #d6292c;
      }

      .st15 {
        fill: #121010;
      }

      .st16 {
        fill: #e15a34;
      }

      .st17 {
        fill: #f1ddd4;
      }

      .st18 {
        fill: #e77f59;
      }

      .st19 {
        fill: #ea9676;
      }

      .st20 {
        fill: #939091;
      }

      .st21 {
        fill: #1a1414;
      }

      .st22 {
        fill: #e26237;
      }

      .st23 {
        fill: #171414;
      }

      .st24 {
        fill: #d2282d;
      }

      .st25 {
        fill: #393130;
      }

      .st26 {
        fill: #d2392c;
      }

      .st27 {
        fill: #6b1c14;
      }

      .st28 {
        fill: #e26136;
      }

      .st29 {
        fill: #b42528;
      }

      .st30 {
        fill: #f1dad2;
      }

      .st31 {
        fill: #302626;
      }

      .st32 {
        fill: #0c0606;
      }

      .st33 {
        fill: #151919;
      }

      .st34 {
        fill: #7c2426;
      }

      .st35 {
        fill: #d42b2a;
      }

      .st36 {
        fill: #1c1615;
      }

      .st37 {
        fill: #e36837;
      }

      .st38 {
        fill: #3e2526;
      }

      .st39 {
        fill: #272222;
      }

      .st40 {
        fill: #eba182;
      }

      .st41 {
        fill: #451717;
      }

      .st42 {
        fill: #591517;
      }

      .st43 {
        fill: #e5734b;
      }

      .st44 {
        fill: #2c2727;
      }

      .st45 {
        fill: #e26338;
      }

      .st46 {
        fill: #e32b31;
      }

      .st47 {
        fill: #b52b27;
      }

      .st48 {
        fill: #b22529;
      }

      .st49 {
        fill: #d6292d;
      }

      .st50 {
        fill: #f2e4df;
      }

      .st51 {
        fill: #d62f2f;
      }

      .st52 {
        fill: #aa2527;
      }

      .st53 {
        fill: #332e2d;
      }

      .st54 {
        fill: #3a2d2c;
      }

      .st55 {
        fill: #eb9c7c;
      }

      .st56 {
        fill: #d32a2d;
      }

      .st57 {
        fill: #e25234;
      }

      .st58 {
        fill: #4d2e2f;
      }

      .st59 {
        fill: #342f2f;
      }

      .st60 {
        fill: #c3282a;
      }

      .st61 {
        fill: #edb9a5;
      }

      .st62 {
        fill: #352c2b;
      }

      .st63 {
        fill: #511e1f;
      }

      .st64 {
        fill: #ce272c;
      }
    </style>
  </defs>
  <path class="st27" d="M31.12,21.11c1.96,1.32,1.9,3.79-.18,7.39-.28,2.66-.81,5.26-1.59,7.8.78.12.79.27.02.44-.33,1.8-.5,3.68-.52,5.64,2.01,3.36,3.51,6.21,4.78,9.51.78-1.87,2-1.24,1.64.7,1.51-1.28,1.94-.75,1.08.99,1.82-.48,5.11.78,3.48,2.62l-6.22-.2c.4,1.38-.09,2.83-1.47,4.38-.16,2.33-.85,3.54-2.07,3.62-.4-.53-1.41-.91-1.78-1.8-.01-1.71.3-3.17.94-4.4,3.18-3.21-.11-5.49-3.2-7.54l-.09-1.34c-2.46,1.13-2.97-4.85-1.85-6.76.28-2.19.86-3.95,1.73-5.28-1.2-.52-.47-2.14.83-1.77l.9-6.07c-1.3-.01-1.07-2.87,0-3.52,0-1.63.52-3.23,1.59-4.8,1.66-1.12,2.33-.99,1.99.41Z"/>
  <path class="st6" d="M33.68,65.72c1.93.5,5.25,3.76,2.05,4.74.29.72.07.81-.59.32-1.82-1.96-3.74-4.47-5.07-6.8l1.37-4.97c.39-1.52,1.19-2.42,2.17-3.03l6.22.2c-.68-1.67-2.51-1.72-3.48-2.62-.11-2.1-.06-2.59,1.71-.98.54-1.72,7.25,1.97,7.79,2.71,3.21,4.35-5.74,6.15-9.14,5.15-1.83.36-2.83,2.13-3.02,5.29Z"/>
  <path class="st51" d="M59.16,45.13c.96,1.24,1.77,1.97,2.43,2.19.96-1.5,1.43.42,1.7,1.77-.53,1.82-2.33,3.73-4.33,3.96-2.5,1.37-5.77,1.71-8.68.34.04,1.72-.65,1.88-1.38.32-.43,2.44-1.46,2.39-2.29.09l-.51-1.94c-2.92-.43-5.05-1.37-6.38-2.81-.76-.29-.74-.61.01-.97.36-.72.66-.67.91.13,3.31-.44,6.63-.47,9.97-.11l.46,2.12c.13-1.47,2.11-1.68,2.74-.28,3.31-.27,4.23-4.03,3.42-7.33l.9-.6c1.84-.48,3.11,2.47,1.03,3.11Z"/>
  <path class="st56" d="M55.7,56c1.52-.91,2.16.29,1.08,1.6,1.12,1,1.28,2.51.49,4.53-1.19,1.08-2.4,1.93-3.65,2.57-.25,1.32-1.32,2.16-2.44,2.78l-3.51,6.01c-.37,1.5-.66,1.52-1.03,0-.47,3.24-6.64,2.17-6.18-1.01.91-.95,1.68-2.02,2.3-3.21l2.13-1,2.67-3.15c.46-2.03,1.65-3.1,3.57-3.2-.92-1.11-.42-2.18,1.49-3.22l.29-1.46c-2.48-.62-2.38-1.25-.09-2.12.91-1.62,2.5-.89,2.87.89Z"/>
  <path class="st31" d="M43.98,11.67c.87-1.62,1.62-.77,1.65.91,1.22.64,2.48,1.28,3.69.74.89-.25,1.53.33,1.91,1.74.88.11,1.99,1.2,2.66,1.77.74.14.69.38-.06.71-.24.45-.5.82-.81.87-.82.13-10.53.83-10.89.41-.26-.31-.41-.72-.52-1.16-1.09.53-2.55.77-3.58-.03-.76-.24-.75-.53,0-.86-.71-2,.28-2.31,1.78-.8-.62-.89,0-1.21,1.86-.96.4-1.1.21-2.4-.08-3.52.69-2.62,1.45-2.33,2.39.18Z"/>
  <path class="st9" d="M37.2,70.92c1.97-1.61,3.92-1.26,3.26,1.56,1.69,1.66,3.92.99,6.18,1.01.61.65,1.02,3.47.13,4.28-3.59,1.98-6.51-.3-8.25-3.83-1.35-.99-2.28-1.95-3.39-3.16l.59-.32c.77-1.57,1.4-1.34,1.48.45Z"/>
  <path class="st54" d="M29.22,57.78c-.19.76-.45.73-.78-.03.64-.8,1.59-1.91,1.36-2.73-.46-1.64-2.42-2.58-4.78-4.16-.72-1.25-.67-2.2.91-1.97,2.58,1.69,5.03,3.4,5.68,7.09-.7.71-1.58,1.35-2.39,1.8Z"/>
  <path class="st26" d="M59.24,21.89c-.51,2.46-2.34,2.37-3.01-.02-.62,2.59-4.66-.59-3.54-2.41-.55-1.17-.13-1.77,1.14-1.92-.04-.25.02-.56.06-.71,3.1.5,4.38,2.42,5.35,5.06Z"/>
  <path class="st7" d="M33.69,17.67c1.39-.93,3.21-1.6,4.34-.04l3.58.03c1.22,1.47-.21,2.14-1.47.98-2.46.88-4.84,1.97-7.16,3.27l-1.87-.81-1.99-.41c1.34-.77,2.17-3.7,4.57-3.02Z"/>
  <path class="st53" d="M46.77,77.77c.59-1.64,1.15-.48.86,1.03-1.2.84-2.95.99-4.43,1.01-2.5-.91-4.62-3.24-4.68-5.88,2.56,1.88,4.63,4.68,8.25,3.83Z"/>
  <path class="st59" d="M38.86,5.95c.76.24.88.62.33,1.17-2.48.17-4.95.57-7.39,1.22-1.59.23-2.42.31-1.48-1.32,2.68-1.01,5.73-1.43,8.54-1.07Z"/>
  <path class="st25" d="M24.07,42.13c0,2.03-.1,5.47,1.85,6.76-.18.81-.41,1.44-.91,1.97-2.65-1.78-2.54-7.61-.96-11.4.84.1.84.99,0,2.67Z"/>
  <path class="st34" d="M59.96,31.71c-1.33.96-1.74.45-1-.98-1.32,0-1.24-1.38,0-1.74-.71-1.35-.69-3.01,0-4.36-1.82-.1-1.69-2.62.27-2.74,1.14,3.12,2.62,6.49.72,9.82Z"/>
  <path class="st63" d="M62.59,44.59c.48,1.81.14,2.43-1.02,1.86-.8-.26-.82-.56-.05-.89-1.34-.68-2.13-2.59-.67-3.49-2.32-1.87-2.93-3.33-1.8-4.37,1.64.15,2.93,1.17,3.27,2.46.43,1.58-.17,3.3.26,4.43Z"/>
  <path class="st47" d="M58.97,53.04l-.56,1.5c-.71.99-1.62,1.47-2.71,1.46-1.01-.13-1.93-.52-2.87-.89-2.03,1.4-3.62.84-2.54-1.72,2.53-.6,5.88-.01,8.68-.34Z"/>
  <path class="st38" d="M59.96,31.71c-.89,1.56-1.6,4.31-.9,5.99-.67,1.84-2.14,1.01-1.82-.86-2.95.42-.1-5.21.72-6.25.11-.14.52-.04,1.01.13l1,.98Z"/>
  <path class="st44" d="M42.12,6.36c.88,1.17,1.11,4.65-.63,4.35l-2.3-3.6c-.18-.28-.27-.72-.33-1.17l3.26.42Z"/>
  <path class="st15" d="M27.54,25.5v3.52c-.19,1.33-.48,2.48-.87,3.45-.88,1.02-1.23.71-1.06-.91.64-2.3.02-4.7.92-6.99,1.51-1.15,2-.69,1.01.94Z"/>
  <path class="st20" d="M45.63,12.57c-.53-.28-1.12-.7-1.65-.91-2.06-.4-1.8-3.11-.63-4.33,2.04.6,3.16,3.09,2.28,5.24Z"/>
  <path class="st10" d="M41.67,15.01c-.28.77-1.27.8-1.86.96-.96-.24-1.84-.26-2.66-.07-.07,1.32-1.47,1.27-1.75-.05.73-.78.73-2.23,1.07-2.96.39-.83,2.57-.78,2.83-.13.57,1.45,1.14,2.32,2.37,2.25Z"/>
  <path class="st1" d="M30.32,7.02l1.48,1.32c-1.68.45-3.53,2.2-5.59.91,1.44-1.67,2.89-1.78,4.1-2.23Z"/>
  <path class="st4" d="M58.41,54.54c-.43,1.07-.23,2.29.11,3.4-.54,1.76-1.41,1.52-1.74-.34l-1.08-1.6c-.48-.68-.16-1.61.34-1.65.82-.07,1.86.1,2.37.19Z"/>
  <path class="st23" d="M26.67,32.46c.6.38.59,1.26-.04,2.62l-.83,1.77c-.33,2.31-.91,2.23-1.67,0l1.47-5.3,1.06.91Z"/>
  <path class="st3" d="M51.23,15.06c-1.14-.14-1.66-.99-1.91-1.74-.07-.96-.5-2.3,1.24-3.08.92,1.77.58,3.25.67,4.82Z"/>
  <path class="st58" d="M58.51,57.94c.46,1.49-.16,3.11-1.24,4.19-.65-1.42-.55-3.01-.49-4.53.55.2,1.13.31,1.74.34Z"/>
  <path class="st39" d="M43.36,7.33c-.17,1.45.04,2.92.63,4.33-.68-.27-1.65-.18-2.39-.18-.05-.21-.15-.57-.1-.77.41-1.42.81-2.87.63-4.35.39.05.94.71,1.24.97Z"/>
  <path class="st36" d="M25.8,36.85c-.11,1.8-.36,3.91-1.73,5.28v-2.67s.07-2.61.07-2.61h1.67Z"/>
  <path class="st33" d="M47.63,78.81c-.39.98-1.13,1.55-2.24,1.74-.97.17-1.47-.48-2.18-.74.93-1.47,2.94-1.34,4.43-1.01Z"/>
  <path class="st62" d="M29.13,20.7c.1,1.89-.33,3.66-1.59,4.8,0-.41-.47-.82-1.01-.94.7-1.78.74-2.79,2.6-3.86Z"/>
  <path class="st32" d="M28.28,62.17c-.61-1.46-.99-3,.16-4.42l.78.03c.27,1.47.44,3.48-.94,4.4Z"/>
  <path class="st41" d="M57.27,62.13c-.81,1.5-2.05,2.7-3.54,3.51-.43-.24-.46-.56-.11-.94,1.01-1.24,1.81-2.58,3.65-2.57Z"/>
  <path class="st11" d="M47.63,78.81c.18-.6-.38-1.14-.86-1.03l-.13-4.28h1.03c-.84,1.44,1.03,3.65-.04,5.32Z"/>
  <path class="st8" d="M37.15,15.9c.74-.16,1.03.13.87.87v.86s-4.33.04-4.33.04l1.71-1.83,1.75.05Z"/>
  <path class="st13" d="M63.29,49.08l-1.7-1.77c-.77-.23-.76-.52-.02-.86.67-.31.97-1.03,1.02-1.86.54,1.4,1.19,2.83.7,4.5Z"/>
  <path class="st42" d="M53.73,65.63c-.38,1.14-1.42,1.82-2.55,1.85.7-1.2,1.74-1.92,2.44-2.78l.11.94Z"/>
  <path class="st52" d="M40.15,18.65c.07.78-.69,1.33-2.27,1.65.74,2.85-1.27,5.6-3.13,7.63,1.94,5.26,3.2,11.24-.55,15.94,1.15,1.52,1.87,2.89,2.16,4.13.82,1.7.33,2.67-1.05,1.09-.86.43-1.41,1.36-1.67,2.78-.64-.03-5.29-5.65-6.46-9.07-.61-1.77,1.05-4.48,2.2-6.07,1.99,1.01,2.16-.01-.02-.44-.17-2.94-.96-6.5.34-9.61.85-2.04,1.7-3.66,1.43-5.57,2.68-2.05,5.63-3.12,9.03-2.46Z"/>
  <path class="st24" d="M29.37,36.73c.03-.12-.01-.28-.02-.44,1.03-.74,1.13-2.16,1.04-3.76,2.64,1.53,2.55,5.6.38,7.46-.46.4-1.65-.58-1.6-1.08.05-.55.06-1.68.2-2.18Z"/>
  <path class="st64" d="M35.3,49.09c1.88.06,2.55,4.63-.03,3.48-.32-.29-1.18-.67-1.64-.7-.77-1.02-1.29-2.83,0-3.93.82-.1,1.4.89,1.67,1.15Z"/>
  <path class="st48" d="M39.83,56.18c-1.38,1.33-4.79,1.14-6.22-.2,1.85-1.15,3.93-.36,6.22.2Z"/>
  <path class="st29" d="M38.06,52.58l-1.71.98-1.08-.99c1.27-.09,1.06-1.19.67-1.78-.37-.55-.47-1.16-.63-1.7.46.18,1.27-.48,1.05-1.09,2.33-1.11,2.8,3.61,1.71,4.58Z"/>
  <path class="st7" d="M26.64,35.09l.04-2.62c.02-1.21-.27-2.74.86-3.45,0,2.03.55,4.47-.9,6.07Z"/>
  <path class="st49" d="M38.91,20.26c3.01,1.74,1.98,4.18.68,6.87,4.04,1.89,2.86,3.7-.2,5.74,1.33,2.15,1.38,3.75.15,4.79,1.12.55.95,1.13.28,1.94,1.34,3.51.64,5.15-2.09,4.92,2.09.92,2.76,2.11,2.02,3.57v.97c.19.55.53,1.16.68,1.09.42-.19,6.59,1.2,6.2,3.67l2.29-.09c3.1-.33-.5,6.39-1.5,7.56-1.1,1.29-2.28,1.11-3.24-.36-2.63,1.02-5.15,2.42-7.56,4.21l-1.91-.4c.91,1.45.41,1.95-1.02,1-1.15-1.7-1.53-4.39-.05-5.74,1.77-1.61,4.47-1.88,6.6.21l5.52-2.74c-2.75-2.22-4.86-4.16-7.69-4.88-.64-1.43-.49-3.54-1.71-4.58l-4.89-4.16c5.46-3.66,3.13-9.7,1.67-16.26,1.62-2.42,3.55-4.97,4.74-7.28.35-.36.66-.4,1.04-.04Z"/>
  <path class="st49" d="M37.2,70.92c-.41-.24-1.02-.37-1.48-.45,1.21-2.04-1.02-3.23-2.05-4.74l1.02-1c1.65-.82,3.53.66,3.34,2.32,4.12,2.78,1.77,3.66-.84,3.87Z"/>
  <path class="st45" d="M52.69,19.46c.99.78,2.2,2.35,3.54,2.41,1.78-.93,2,6.86,1.89,7.64-1.36,3.18-1.97,6.21-1.83,9.09,1.58-.81,2.01-.26.82,1.07,1.24.96,1.57,1.74,1.01,2.35.91,5.38-1.72,9.48-3.55,8.68-.27-.12-.56-.55-.76-.75-1.43-.85.54-2.57,1.8-1.79-.31-2.5-1.05-4.79-2.21-6.85-3.46-2.06-4.41-8.21-1.33-10.76,2.01-2.2,2.57-4.54,1.68-7.01-.83.57-1.11.38-.83-.58-5.07-2.34-10.17,2.57-6.51,7.37-.09,3.66-3.17,5.81-4.04,2.02-.76,1.04-1.05,2.3-.89,3.76.78,0,.81.25.14.71.29,1.61-1.17,2.4-2.1.85.67-1.52-.28-3.53-1.4-4.94,1.18-1.31,2.14-1.99,2.69-3.38-1.86-.14-3.51-1.52-3.12-2.39l1.54-3.47c.31-.7-1.72-2.26-.34-3.21.09-.27.19-.5.37-.59,2.45-1.21,11.79-2.44,13.41-.21Z"/>
  <path class="st22" d="M52.83,55.1l.09,2.12c-1.83,1.3-2.43,2.86-1.79,4.69-2.01,2.19-.81,5.51-6.24,6.35l-.59.09c-1.38-1.04-.98-1.67-.23-2.79-.61-1.23-.92-2.1.16-3.32-1.69-.1-1.69-.77-.06-1.33,2.83-.22,5.14-4.74,4.73-7.2l1.38-.32c.59.87,1.54,1.32,2.54,1.72Z"/>
  <path class="st2" d="M43.71,38.3c.14.81-.62,1.19-2.28,1.15.64.18,1.02.6,1.39,1.1,1.49,2.01,2.1,2.66,4.11,4.58.45.43.3,1.19,0,1.85l-.31.95-5.97.27-.91-.13c-1.19-1.23-3.94-1.99-4.42-4.22.36-1.29,3.07-1.52,4.45-.78-.64-1.45-1.02-1.99-1.35-3.19-.29-1.07.83-1.58,1.12-2.23l2.1-.85c1.42-2.11,2.94-.77,2.08,1.49Z"/>
  <path class="st37" d="M53.99,46.17c1.11,1.35.14,2.7-2.92,4.04-3.25-1.67-6.88-1.51-10.43-2.01,1.68-1.4,4.16-1.09,6.28-1.22l.45-1.17c-1.66-1.25-1.87-2.47-.64-3.64.24-.91.56-.97.97-.15,1.23-2.41,7.25,1.69,6.28,4.14Z"/>
  <path class="st16" d="M46.62,53.8l-6.44-2.57c-.79-.31-1.37-.94-1.24-1.54.06-.29.44-.56.79-.65,3.8.81,7.66.63,10.83,3.33-1.96.04-3.44.13-3.94,1.43Z"/>
  <path class="st19" d="M55.62,48.15l-1.8,1.79c-.84-.06-1.86.05-2.74.28-.14-.58-.38-1.05-.42-1.85,1.7.3,3.27-.5,3.34-2.19,1.89-1.16,2.3.13,1.63,1.98Z"/>
  <path class="st14" d="M60.86,42.07c.4.96.98,2.23.67,3.49-.67,1.66-1.79,1.23-2.36-.43.12-1.17-.61-2.12-1.03-3.11l-1.01-2.35c.77-1.31,2.02-.51,3.74,2.4Z"/>
  <path class="st0" d="M61.52,45.56c-.06.26.04.62.05.89l.02.86c.02.43.09.89-.27,1.64-1.63-.8-2.33-2.24-2.16-3.82.84-.06,1.65.08,2.36.43Z"/>
  <path class="st28" d="M44.17,60.91l.06,1.33c-.09,1.43-1.29,2.67-3.58,3.72l3.65,2.39c.13-.09.42-.06.59-.09-.34,1-.59,2.09-.93,2.91-.58,1.39-2.15,1.44-3.5,1.3-.74-.72-2.34-1.01-3.26-1.56-.34-.26.07-1.31.35-1.17s1.69-.34,1.53-.63c-1.49-1.76-3.7-2.5-4.37-4.39,2.34-3.32,5.9-3.54,9.47-3.81Z"/>
  <path class="st5" d="M52.92,57.23c.66.13,1.73,1.11,1.41,1.91-.65,1.65-2.43,1.94-3.2,2.78-.44.11-2.31.42-2.33-.13-.01-.25.8-4.99,1.86-5.08.79-.07,1.64.24,2.26.52Z"/>
  <path class="st60" d="M53.84,17.54c.06.39.1.85-.07,1.29-.13.33-.59.62-1.07.63l-13.78.8-1.04.04c.37-.73,1.59-1.33,2.27-1.65.56-.26,1.07-.48,1.47-.98,4.1.04,8.25-1.87,12.23-.13Z"/>
  <path class="st21" d="M39.81,15.97c-.55.15-1.17.73-1.78.8-.37-.2-.67-.5-.87-.87-.1-.92-.41-2.03.88-3.05,1.19,1.16,1.12,2.25,1.78,3.12Z"/>
  <path class="st35" d="M59.24,21.89l-.27,2.74c-.66,1.41-.68,2.95,0,4.36v1.74c-1.45,1.68-1.92,3.93-1.74,6.12,2.02,1.67,1.48,2.91-.94,1.75-1.25-.93-2.31-2.22-2.52-3.87,4.46-.77,3.91-6.8,2.46-12.86l3.01.02Z"/>
  <path class="st46" d="M58.97,28.99c-1.37-.86-1.35-3.49,0-4.36v4.36Z"/>
  <path class="st57" d="M59.05,37.7l1.8,4.37-3.74-2.4c-.15-.34-.54-.85-.82-1.07.82-.2,1-1.01.94-1.75.49.24,1.18.78,1.82.86Z"/>
  <path class="st55" d="M44.3,68.35c-1.94,1.34-3.75.03-5.96-2.16.85-2.14,3.51-3.31,5.88-3.95.61.9,1.39,1.95,1.55,3.08s-.85,2.17-1.48,3.03Z"/>
  <path class="st12" d="M44.82,40.39c1.1-.49,2.26.61,1.92,1.8.83,1.13,1.4,2.86,3.29,4.48-1.3.62-2.12.27-3.1.33l-4.37-3.32c-1.39-1.03-1.92-2.92-1.13-4.21,1.25-.62,3.12-.57,3.39.93Z"/>
  <path class="st45" d="M43.71,38.3l2.18,1.07c1.56,1.4.75,2.1-1.07,1.01l-3.39-.93c.47-.77,1.41-1.09,2.28-1.15Z"/>
  <g>
    <path class="st40" d="M52.93,22.95c-.56,1.78-1.47,1.95-2.73.53l-2,.14c1.15.25,1.19.61.08,1.06.19,2.03.95,2.91,2.8,1.71.81-1.16,1.7-2.11,2.68-2.86,2.11,2.43,1.4,7.1-1.82,9.18l.42,5.59c3.66,1.8,5.88,7.28,3.25,9.85-.43-.84-.8-1.43-1.63-1.98l-6.28-4.14c-.96-.61-2.09-1.54-1.82-2.66-.91.65-2.45.2-2.18-1.07l-2.08-1.49-.14-.71c-.38-1.25-.1-3.02.89-3.76.89.73,1.78.4,2.24-.67.96-2.27-3.42-4.47-.2-7.66,2.42-2.39,6.21-3.47,8.52-1.06Z"/>
    <g>
      <path class="st50" d="M52.93,22.95c.15.15.32.62.83.58-.13,1.51.27,3.01-1.19,4.67l-1.48-1.81c-.76-1.15-1.72-2.07-2.88-2.77,1.18-1.24,3.11-.81,4.73-.66Z"/>
      <path class="st18" d="M42.38,32.34c1.01,1.34-.27,2.57-.89,3.76-.76-.32-1.14-1.79-.89-2.95.15-.68.78-1.64,1.78-.82Z"/>
      <path class="st43" d="M47.71,42.03c-.19-.09-.68,0-.97.15-.47-.51-1.62-.96-1.92-1.8l1.07-1.01c1.09.54,1.79,1.39,1.82,2.66Z"/>
      <path class="st17" d="M53.49,43.61c-3.19-1.35-5.72-3.32-5.82-7.05,3.63.62,5.88,3.52,5.82,7.05Z"/>
      <path class="st30" d="M48.29,24.68c.76-.99,2.43.5,2.8,1.71l-.17,3.19c-1.81.26-2.43-1.31-3.36-2.54-.48-.64-1.24-2.05.74-2.36Z"/>
      <path class="st61" d="M51.08,26.38l-2.8-1.71-.08-1.06c.88.04,1.86.2,2.53.96.36.4.4,1.16.35,1.81Z"/>
    </g>
  </g>
</svg>