<?xml version="1.0" encoding="UTF-8"?>
<svg id="Layer_1" xmlns="http://www.w3.org/2000/svg" version="1.1" viewBox="0 0 2048 2048">
  <!-- Generator: Adobe Illustrator 30.3.0, SVG Export Plug-In . SVG Version: 2.1.3 Build 182)  -->
  <defs>
    <style>
      .st0 {
        fill: #fff;
      }
    </style>
  </defs>
  <path d="M478.27,1481.98c-18.29,32.2-17.95,67.65-3.94,99.92,14.7,33.86,48.25,59.46,87.39,59.47l1054.64.33c14.07,0,22.47,10.92,22.83,22.4.36,11.77-8.47,23.62-23,23.62l-1057.03-.44c-48.37-.02-90-27.6-115.73-65.4-31.13-50.17-33.68-110.74-5.61-162.36,17.78-32.69,47.14-55.15,83.56-66.93l-187.84-873.52-218.02-66.2c-12.29-3.73-15.84-18.73-13.14-27.78,3.56-11.91,15.52-19.47,28.73-15.47l228.69,69.29c9.84,3.44,14.53,10.65,16.62,20.43l26.53,123.94,1428.33,170.22c13.77,1.64,21.14,13.91,19.49,26.82l-103.11,591.64c-2.16,12.42-10.4,20.83-23.61,20.83l-1169.96.31c-31.7,0-61.17,23.03-75.85,48.87ZM683.88,905.19l-31.18-205.84-239.36-28.4,46.88,218.42,223.66,15.83ZM955.97,924.89l-15.65-191.17-240.18-28.64,30.9,203.71,224.93,16.11ZM1228.64,944.44l-1.12-176.56-240.59-28.62,15.57,189.07,226.15,16.1ZM1501.79,964.12l12.79-162.01-240.88-28.68.92,174.44,227.17,16.25ZM1775.62,983.8l25.62-147.5-240.91-28.74-12.68,159.95,227.97,16.29ZM723.91,1168.67l-32.82-216.69-220.72-15.76,48.91,227.56,204.63,4.88ZM976.55,1174.67l-16.7-203.34-221.68-15.82,32.54,214.47,205.83,4.69ZM1229.88,1180.98l-1.1-190.33-222.46-15.94,16.54,201.33,207.02,4.94ZM1484.06,1187.26l14.04-177.24-223.21-15.98,1.04,188.13,208.13,5.08ZM1739.06,1193.46l28.51-164.05-223.64-16.06-13.71,175.05,208.84,5.06ZM757.02,1386.75l-26.03-171.82-201.78-4.91,38.06,176.84,189.75-.11ZM994.04,1386.82l-13.61-165.8-202.71-4.94,25.91,170.79,190.41-.06ZM1231.13,1386.79l-.9-159.7-203.54-4.82,13.59,164.58,190.85-.06ZM1468.21,1386.83l12.19-153.59-204.14-5.03.84,158.55,191.1.07ZM1705.38,1386.75l25.63-147.41-204.5-5-12.1,152.56,190.97-.15Z"/>
  <path d="M846.87,1829.53c0,65.46-53.06,118.52-118.52,118.52s-118.52-53.06-118.52-118.52,53.06-118.52,118.52-118.52,118.52,53.06,118.52,118.52ZM800.85,1829.55c0-40.03-32.45-72.48-72.48-72.48s-72.48,32.45-72.48,72.48,32.45,72.48,72.48,72.48,72.48-32.45,72.48-72.48Z"/>
  <path d="M1613.52,1829.54c0,65.46-53.07,118.53-118.53,118.53s-118.53-53.07-118.53-118.53,53.07-118.53,118.53-118.53,118.53,53.07,118.53,118.53ZM1567.47,1829.55c0-40.03-32.45-72.48-72.48-72.48s-72.48,32.45-72.48,72.48,32.45,72.48,72.48,72.48,72.48-32.45,72.48-72.48Z"/>
  <circle class="st0" cx="728.38" cy="1829.55" r="72.48"/>
  <circle class="st0" cx="1494.99" cy="1829.55" r="72.48"/>
</svg>