<?xml version="1.0" encoding="UTF-8"?>
<svg id="Layer_1" xmlns="http://www.w3.org/2000/svg" version="1.1" viewBox="0 0 2048 2048">
  <!-- Generator: Adobe Illustrator 30.3.0, SVG Export Plug-In . SVG Version: 2.1.3 Build 182)  -->
  <defs>
    <style>
      .st0 {
        fill: #fff;
      }
    </style>
  </defs>
  <g>
    <path d="M645.4,720.93c6.33,1.76,11.64,6.76,15.02,11.85l24.7,37.29c11.9,17.97,25.01,33.87,40.23,49.17,25.85,25.98,57.73,42.16,92.05,54.73,47.18,17.28,104.86,18.27,151.98.06,32.18-12.44,60.71-30.42,85.06-54.82,30.51-30.57,55.95-65.05,74.42-104.09,12.17-25.72,20.76-51.31,28.2-78.73,11.99-44.22,20.96-87.98,29.75-132.93,11.38-58.23,25.28-98.84,68.22-140.7,9.01-8.78,17.18-17.06,28.97-21.89l26.01-10.66,21.69-5.89,21.36-2.62,30.07.1,16.54,1.62,9.52-2.88c15.25-6.66,29.03-14.89,41.53-26.22,6.68-6.06,10.55-15.5,14.9-23.56l10.06-18.65,20.72-43.44c5.85-12.27,6.57-24.92,6.13-38.53-.48-14.77-4.96-29.55-16.99-38.6-9.36-7.04-30.09-11.11-41.3-8.61l-19.05,4.26c-5.26,1.18-11.93,2.41-15.77-2.32-6.16-7.58-3.43-18.46,4.1-24.84,10.22-8.67,23.88-13.91,37.71-13.84l13.86.06c46.75.21,86.76,67.39,84.1,112.63-1.13,19.28-5.81,37.29-10.75,55.8l-15.48,58.01c-3.86,14.46-2.46,28.4,2.82,42.53,1.68,4.49,3.77,9.49,7.86,12.33l23.22,16.08c22.38,16.58,41.31,36.86,53.71,62,8.06,16.34,14.89,32.16,18.15,50.1v17.29c.02,21.72.81,41.85-4.15,63.03-6.25,26.65-13.97,51.92-25.07,76.94l-25.07,56.5-29.63,56.43-33.01,53.12c-15.81,25.44-35.06,47.59-55.15,69.79l-35.97,39.73c-18.38,20.3-38.92,37.13-60.27,54.49-25.71,20.92-52.97,38.22-81.95,54.64-44.98,25.48-93.21,42.8-143.62,54.8-84.9,20.22-187.97,24.14-271.93-.05-41.94-12.08-81.39-28.84-116.68-54.34-91.68-66.26-155.37-171.8-127.11-286.92,3.5-14.24,13.37-33.83,26.31-30.23ZM1245.8,717.52c21.79-39.21,27.2-77.73,32.65-121.21,3.43-27.36,5.8-65.82,29.17-78.68,12.01-6.61,18.86-17.81,14.59-31.3-3.77-11.9-17.23-19.87-30.16-15.18-26.33,9.55-49.63,45.08-53.62,70.96l-7.49,48.59c-6.4,41.49-7.06,67.5-28.84,106.4-6.76,12.08.05,27.12,11.38,32.29,12.29,5.61,25.42.56,32.33-11.87ZM1123.59,852.68c21.27,21.93,54.69-11.94,69.35-35.96,6.1-9.99,12.28-19.75,15.79-30.95,3.59-11.44-3.05-23.95-12.74-28.41-10.7-4.93-24.73-1.83-30.19,9.02-9.32,18.54-18.6,38.11-37.09,48.21-12.08,6.6-16.91,25.95-5.12,38.1Z"/>
    <g>
      <path class="st0" d="M1245.8,717.52c-6.91,12.43-20.04,17.47-32.33,11.87-11.33-5.17-18.14-20.22-11.38-32.29,21.79-38.9,22.45-64.91,28.84-106.4l7.49-48.59c3.99-25.88,27.29-61.4,53.62-70.96,12.93-4.69,26.39,3.28,30.16,15.18,4.27,13.5-2.58,24.7-14.59,31.3-23.37,12.86-25.74,51.32-29.17,78.68-5.45,43.49-10.86,82-32.65,121.21Z"/>
      <path class="st0" d="M1123.59,852.68c-11.78-12.15-6.95-31.5,5.12-38.1,18.49-10.1,27.78-29.67,37.09-48.21,5.45-10.85,19.49-13.94,30.19-9.02,9.68,4.46,16.32,16.97,12.74,28.41-3.51,11.21-9.69,20.96-15.79,30.95-14.66,24.02-48.09,57.88-69.35,35.96Z"/>
    </g>
  </g>
  <g>
    <path d="M478.27,1481.98c-18.29,32.2-17.95,67.65-3.94,99.92,14.7,33.86,48.25,59.46,87.39,59.47l1054.64.33c14.07,0,22.47,10.92,22.83,22.4.36,11.77-8.47,23.62-23,23.62l-1057.03-.44c-48.37-.02-90-27.6-115.73-65.4-31.13-50.17-33.68-110.74-5.61-162.36,17.78-32.69,47.14-55.15,83.56-66.93l-187.84-873.52-218.02-66.2c-12.29-3.73-15.84-18.73-13.14-27.78,3.56-11.91,15.52-19.47,28.73-15.47l228.69,69.29c9.84,3.44,14.53,10.65,16.62,20.43l26.53,123.94,1428.33,170.22c13.77,1.64,21.14,13.91,19.49,26.82l-103.11,591.64c-2.16,12.42-10.4,20.83-23.61,20.83l-1169.96.31c-31.7,0-61.17,23.03-75.85,48.87ZM683.88,905.19l-31.18-205.84-239.36-28.4,46.88,218.42,223.66,15.83ZM955.97,924.89l-15.65-191.17-240.18-28.64,30.9,203.71,224.93,16.11ZM1228.64,944.44l-1.12-176.56-240.59-28.62,15.57,189.07,226.15,16.1ZM1501.79,964.12l12.79-162.01-240.88-28.68.92,174.44,227.17,16.25ZM1775.62,983.8l25.62-147.5-240.91-28.74-12.68,159.95,227.97,16.29ZM723.91,1168.67l-32.82-216.69-220.72-15.76,48.91,227.56,204.63,4.88ZM976.55,1174.67l-16.7-203.34-221.68-15.82,32.54,214.47,205.83,4.69ZM1229.88,1180.98l-1.1-190.33-222.46-15.94,16.54,201.33,207.02,4.94ZM1484.06,1187.26l14.04-177.24-223.21-15.98,1.04,188.13,208.13,5.08ZM1739.06,1193.46l28.51-164.05-223.64-16.06-13.71,175.05,208.84,5.06ZM757.02,1386.75l-26.03-171.82-201.78-4.91,38.06,176.84,189.75-.11ZM994.04,1386.82l-13.61-165.8-202.71-4.94,25.91,170.79,190.41-.06ZM1231.13,1386.79l-.9-159.7-203.54-4.82,13.59,164.58,190.85-.06ZM1468.21,1386.83l12.19-153.59-204.14-5.03.84,158.55,191.1.07ZM1705.38,1386.75l25.63-147.41-204.5-5-12.1,152.56,190.97-.15Z"/>
    <path d="M846.87,1829.53c0,65.46-53.06,118.52-118.52,118.52s-118.52-53.06-118.52-118.52,53.06-118.52,118.52-118.52,118.52,53.06,118.52,118.52ZM800.85,1829.55c0-40.03-32.45-72.48-72.48-72.48s-72.48,32.45-72.48,72.48,32.45,72.48,72.48,72.48,72.48-32.45,72.48-72.48Z"/>
    <path d="M1613.52,1829.54c0,65.46-53.07,118.53-118.53,118.53s-118.53-53.07-118.53-118.53,53.07-118.53,118.53-118.53,118.53,53.07,118.53,118.53ZM1567.47,1829.55c0-40.03-32.45-72.48-72.48-72.48s-72.48,32.45-72.48,72.48,32.45,72.48,72.48,72.48,72.48-32.45,72.48-72.48Z"/>
    <circle class="st0" cx="728.38" cy="1829.55" r="72.48"/>
    <circle class="st0" cx="1494.99" cy="1829.55" r="72.48"/>
  </g>
</svg>